<svg xmlns="http://www.w3.org/2000/svg" viewBox="0 0 256 256" fill="currentColor"><path d="M200,32H176.57A32,32,0,0,0,144,8H112A32,32,0,0,0,79.43,32H56A16,16,0,0,0,40,48V216a16,16,0,0,0,16,16H200a16,16,0,0,0,16-16V48A16,16,0,0,0,200,32ZM112,24h32a16,16,0,0,1,16,16v8H96V40A16,16,0,0,1,112,24Zm88,192H56V48H80V56a8,8,0,0,0,8,8h80a8,8,0,0,0,8-8V48h24ZM88,112a8,8,0,0,1,8-8h64a8,8,0,0,1,0,16H96A8,8,0,0,1,88,112Zm0,40a8,8,0,0,1,8-8h64a8,8,0,0,1,0,16H96A8,8,0,0,1,88,152Zm0,40a8,8,0,0,1,8-8h40a8,8,0,0,1,0,16H96A8,8,0,0,1,88,192Z"/></svg>
