<svg xmlns="http://www.w3.org/2000/svg" viewBox="0 0 256 256" fill="currentColor"><path d="M247.3,124.8c-.3-.8-8.8-20.6-27.6-39.4C194.6,60.2,162.9,48,128,48S61.4,60.2,36.3,85.4C17.5,104.2,9,124,8.7,124.8a8,8,0,0,0,0,6.4c.3.8,8.8,20.6,27.6,39.4C61.4,195.8,93.1,208,128,208s66.6-12.2,91.7-37.4c18.8-18.8,27.3-38.6,27.6-39.4A8,8,0,0,0,247.3,124.8ZM128,192c-30.8,0-57.7-10.3-80-30.6A130.4,130.4,0,0,1,25,128,130.4,130.4,0,0,1,48,94.6C70.3,74.3,97.2,64,128,64s57.7,10.3,80,30.6A130.4,130.4,0,0,1,231,128C223.7,141.6,192.8,192,128,192Zm0-112a48,48,0,1,0,48,48A48.1,48.1,0,0,0,128,80Zm0,80a32,32,0,1,1,32-32A32,32,0,0,1,128,160Z"/></svg>
